<svg xmlns="http://www.w3.org/2000/svg" viewBox="0 0 1084 225.53"><defs><style>.a{fill:#ff7f29;}</style></defs><title>Empresa</title><path class="a" d="M0,221q48.75-1,97.5-1.75l48.75-.68,48.75-.55,48.75-.51,48.75-.39,48.75-.37,48.75-.23-3.17,1.31,53.82-54.28,54-54.14q27-27.08,54-54.07l54.14-54L604.22,0h2l29.86.06L665.93.2l59.72.29q29.86.11,59.72.4l59.72.48L904.83,2l29.86.33,29.86.42,59.72.92L1084,4.83,1024.28,6l-59.72.92-29.86.42-29.86.33L845.1,8.3l-59.72.48q-29.86.25-59.72.4l-59.72.29-29.86.14-29.86.06,3.41-1.41-54,54.14q-26.95,27.1-54.07,54l-54.14,54-54.28,53.82-1.33,1.32H390l-48.75-.23-48.75-.37-48.75-.39L195,224l-48.75-.55-48.75-.68Q48.75,222.08,0,221Z"/></svg>