<svg xmlns="http://www.w3.org/2000/svg" viewBox="0 0 1084 225.53"><defs><style>.a{fill:#ff3600;}</style></defs><title>Empresa</title><path class="a" d="M1084,221q-48.75-1-97.5-1.75l-48.75-.68L889,218.05l-48.75-.51-48.75-.39-48.75-.37L694,216.56l3.17,1.31-53.82-54.28-54-54.14q-27-27.08-54-54.07l-54.14-54L479.78,0h-2L447.93.06,418.07.2,358.34.49q-29.86.11-59.72.4l-59.72.48L179.17,2l-29.86.33-29.86.42-59.72.92L0,4.83,59.72,6l59.72.92,29.86.42,29.86.33,59.72.64,59.72.48q29.86.25,59.72.4l59.72.29,29.86.14,29.86.06-3.41-1.41,54,54.14q26.95,27.1,54.07,54l54.14,54,54.28,53.82,1.33,1.32H694l48.75-.23,48.75-.37,48.75-.39L889,224l48.75-.55,48.75-.68Q1035.25,222.08,1084,221Z"/></svg>