<svg xmlns="http://www.w3.org/2000/svg" viewBox="0 0 1084 225.53"><defs><style>.a{opacity:0.5;}.b{fill:#f50;}</style></defs><title>Empresa</title><g class="a"><path class="b" d="M1039.34,13.45l-44.73-.66-44.73-.52-44.73-.52-44.73-.39-89.47-.63-89.47-.42h-1.29l-.93.92L629.5,60.67l-49.66,49.54-49.61,49.59-49.54,49.66,2.39-1-54.8.14-54.8.2-109.61.61-54.8.45-27.4.23-27.4.32c-36.54.45-73.07.78-109.61,1.42,36.54.64,73.07,1,109.61,1.42l27.4.32,27.4.23,54.8.45,109.61.61,54.8.2,54.8.14h1.39l1-1,49.66-49.54,49.59-49.61,49.54-49.66,49.44-49.76-2.22.92,89.47-.42,89.47-.63,44.73-.39,44.73-.52,44.73-.52Z"/></g></svg>